#!OML:ASF F:\VICON\USERDATA\INSTALL\rory3\rory3.ASF
:FULLY-SPECIFIED
:DEGREES
2890
root 0.375157 10.4937 -6.76565 357.871 -64.7658 -363.198
lowerback 44.082 0.498307 1.83162
upperback 12.905 -0.148714 -0.916072
thorax -6.14306 -0.571899 -1.78823
lowerneck -4.36031 -0.530398 -7.31599
upperneck -19.86 -1.2103 0.546355
head -5.26131 -0.330039 1.45555
rclavicle 5.20816e-014 -2.46493e-014
rhumerus 30.6084 29.9567 -66.7977
rradius 84.7684
rwrist -21.3426
rhand -46.5668 -3.56007
rfingers 7.12502
rthumb -19.2907 -32.6233
lclavicle 5.20816e-014 -2.46493e-014
lhumerus 37.8404 -32.152 61.0688
lradius 74.9828
lwrist 45.3954
lhand -39.2697 23.6996
lfingers 7.12502
lthumb -12.2637 53.32
rfemur -85.4883 -16.6062 10.7432
rtibia 112.63
rfoot -18.7068 2.55371
rtoes -4.16684
lfemur -85.4428 14.1265 -2.81488
ltibia 103.009
lfoot -5.66135 -19.0129
ltoes -12.6525
2891
root 0.370611 10.5403 -6.76165 358.884 -64.6293 -363.709
lowerback 44.3708 0.480819 2.04992
upperback 12.6575 -0.0331438 -0.74577
thorax -6.48813 -0.516391 -1.76279
lowerneck -4.30694 -0.407384 -7.246
upperneck -19.72 -1.05393 0.393876
head -5.23373 -0.247297 1.38967
rclavicle 1.39149e-014 -1.82882e-014
rhumerus 30.0019 29.9016 -66.7199
rradius 85.6736
rwrist -20.8154
rhand -46.7077 -4.36394
rfingers 7.12502
rthumb -19.4263 -33.4135
lclavicle 1.39149e-014 -1.82882e-014
lhumerus 37.2903 -32.2362 61.9644
lradius 75.486
lwrist 45.3411
lhand -39.5593 23.0019
lfingers 7.12502
lthumb -12.543 52.6054
rfemur -85.6514 -16.3068 10.9653
rtibia 112.3
rfoot -18.8425 2.01819
rtoes -4.47607
lfemur -85.7664 14.0362 -2.91366
ltibia 103.482
lfoot -6.33036 -18.4265
ltoes -11.5567
2892
root 0.342732 10.5477 -6.7453 359.704 -64.4515 -363.832
lowerback 44.3695 0.414559 2.18162
upperback 12.4771 -0.027394 -0.719993
thorax -6.68831 -0.505067 -1.80487
lowerneck -4.24826 -0.249196 -6.97581
upperneck -19.5869 -0.863381 0.142864
head -5.21019 -0.15572 1.25865
rclavicle 2.38542e-015 7.05686e-014
rhumerus 29.5833 29.8726 -66.6634
rradius 86.5553
rwrist -20.2641
rhand -47.3137 -4.6881
rfingers 7.12502
rthumb -20.0088 -33.6779
lclavicle 2.38542e-015 7.05686e-014
lhumerus 36.6309 -32.126 62.9665
lradius 75.9868
lwrist 45.0204
lhand -39.4492 22.1865
lfingers 7.12502
lthumb -12.4368 51.7965
rfemur -86.3072 -16.313 10.9941
rtibia 112.308
rfoot -18.9732 1.75089
rtoes -4.80542
lfemur -86.5106 13.9843 -3.17111
ltibia 104.181
lfoot -7.02509 -17.9049
ltoes -10.1586
2893
root 0.30702 10.5526 -6.72309 360.053 -64.3219 -363.564
lowerback 44.5732 0.385355 2.17107
upperback 12.2228 -0.0368916 -0.737805
thorax -7.02837 -0.503601 -1.81337
lowerneck -4.16678 -0.104101 -6.813
upperneck -19.3267 -0.681131 -0.0810697
head -5.14947 -0.0631014 1.15338
rclavicle 1.21259e-014 -9.54166e-015
rhumerus 29.1125 29.8805 -66.5917
rradius 87.366
rwrist -19.7422
rhand -47.8485 -4.63433
rfingers 7.12502
rthumb -20.5228 -33.5696
lclavicle 1.21259e-014 -9.54166e-015
lhumerus 35.7668 -32.0398 64.1148
lradius 76.4759
lwrist 44.6478
lhand -37.9545 22.3426
lfingers 7.12502
lthumb -10.9954 52.0346
rfemur -86.8079 -16.3949 10.7954
rtibia 112.368
rfoot -19.1512 1.69706
rtoes -5.20033
lfemur -87.0199 13.9726 -3.70653
ltibia 104.844
lfoot -8.18798 -17.3382
ltoes -9.8729
2894
root 0.270246 10.5571 -6.70065 360.825 -64.2584 -363.92
lowerback 44.9173 0.368738 2.2959
upperback 11.9874 0.0311494 -0.645824
thorax -7.37824 -0.473009 -1.80486
lowerneck -4.17177 0.0134793 -6.82647
upperneck -19.0119 -0.499299 -0.11047
head -5.05621 0.0285374 1.13813
rclavicle 3.24019e-014 4.77083e-015
rhumerus 28.7304 29.9117 -66.2979
rradius 88.0845
rwrist -19.3191
rhand -47.8196 -4.4128
rfingers 7.12502
rthumb -20.4951 -33.351
lclavicle 3.24019e-014 4.77083e-015
lhumerus 35.0395 -32.054 64.9375
lradius 77.0602
lwrist 44.6529
lhand -35.621 23.482
lfingers 7.12502
lthumb -8.74411 53.2809
rfemur -87.1095 -16.3047 10.8935
rtibia 112.44
rfoot -19.3994 1.56878
rtoes -5.76784
lfemur -87.3726 14.1359 -3.95473
ltibia 105.417
lfoot -9.41192 -16.9272
ltoes -9.92515
2895
root 0.23625 10.5595 -6.68302 362.526 -64.0794 -365.119
lowerback 45.1739 0.248823 2.65031
upperback 11.668 0.0986751 -0.463305
thorax -7.79592 -0.442001 -1.81686
lowerneck -4.23335 0.164012 -6.6126
upperneck -18.6176 -0.27937 -0.246467
head -4.92945 0.128099 1.05052
rclavicle -5.12864e-014 2.14687e-014
rhumerus 28.2851 29.9974 -66.0911
rradius 88.7636
rwrist -19.0512
rhand -47.4219 -3.83377
rfingers 7.12502
rthumb -20.1128 -32.8127
lclavicle -5.12864e-014 2.14687e-014
lhumerus 34.3399 -32.1287 65.5147
lradius 77.649
lwrist 44.6993
lhand -34.2935 24.0749
lfingers 7.12502
lthumb -7.46287 53.9232
rfemur -87.5597 -16.1781 11.5032
rtibia 112.469
rfoot -19.5806 1.22312
rtoes -6.37802
lfemur -88.0669 14.3028 -3.65895
ltibia 105.775
lfoot -10.1173 -16.9046
ltoes -9.48933
2896
root 0.20065 10.5674 -6.66392 364.048 -63.8362 -366.09
lowerback 45.3576 0.118725 2.94769
upperback 11.3808 0.124678 -0.33379
thorax -8.16135 -0.429262 -1.83954
lowerneck -4.18164 0.360234 -6.18182
upperneck -18.3842 -0.0397845 -0.572258
head -4.87078 0.236608 0.868831
rclavicle 2.82274e-014 1.04362e-014
rhumerus 27.8447 30.004 -66.0046
rradius 89.5045
rwrist -19.0028
rhand -47.4045 -3.67829
rfingers 7.12502
rthumb -20.0961 -32.659
lclavicle 2.82274e-014 1.04362e-014
lhumerus 33.789 -32.2406 65.848
lradius 78.2385
lwrist 44.693
lhand -34.2255 24.3744
lfingers 7.12502
lthumb -7.39721 54.2251
rfemur -87.9768 -16.1821 12.0235
rtibia 112.455
rfoot -19.7774 1.06534
rtoes -6.30665
lfemur -88.7284 14.2434 -3.2523
ltibia 105.883
lfoot -10.118 -16.9988
ltoes -7.79977
2897
root 0.164377 10.5863 -6.64303 364.864 -63.653 -366.409
lowerback 45.5516 0.11078 3.03229
upperback 11.2087 0.187037 -0.245672
thorax -8.40169 -0.401956 -1.81379
lowerneck -4.23655 0.522847 -5.9165
upperneck -18.1572 0.173697 -0.797653
head -4.79549 0.33668 0.747231
rclavicle 4.87022e-015 -3.0911e-014
rhumerus 27.5021 29.8158 -65.8663
rradius 90.2477
rwrist -18.7928
rhand -47.6092 -4.28108
rfingers 7.12502
rthumb -20.2928 -33.241
lclavicle 4.87022e-015 -3.0911e-014
lhumerus 33.5062 -32.3899 66.0038
lradius 78.8415
lwrist 44.7863
lhand -34.3804 24.4183
lfingers 7.12502
lthumb -7.54671 54.2637
rfemur -88.228 -16.2291 12.1847
rtibia 112.412
rfoot -20.0388 1.02344
rtoes -6.23925
lfemur -89.0928 13.9438 -2.99321
ltibia 105.787
lfoot -9.99119 -16.7768
ltoes -6.73028
2898
root 0.128986 10.609 -6.61979 365.494 -63.5123 -366.56
lowerback 45.6972 0.093518 3.09367
upperback 11.0987 0.218107 -0.177954
thorax -8.56126 -0.388901 -1.78499
lowerneck -4.34726 0.592926 -6.0142
upperneck -17.9223 0.313317 -0.661842
head -4.70839 0.4033 0.800852
rclavicle -7.95139e-015 2.9122e-014
rhumerus 27.3236 29.6203 -65.7661
rradius 90.8425
rwrist -18.2253
rhand -47.5519 -5.24981
rfingers 7.12502
rthumb -20.2378 -34.2155
lclavicle -7.95139e-015 2.9122e-014
lhumerus 33.3739 -32.4471 66.0377
lradius 79.4009
lwrist 44.8657
lhand -34.0187 24.5676
lfingers 7.12502
lthumb -7.19765 54.4252
rfemur -88.4519 -16.2867 12.2696
rtibia 112.344
rfoot -20.2327 0.951945
rtoes -6.46869
lfemur -89.3807 13.5698 -2.76407
ltibia 105.596
lfoot -10.0679 -16.3318
ltoes -7.6594
